<?xml version="1.0" encoding="utf-8"?>
<!-- Generator: Adobe Illustrator 16.0.0, SVG Export Plug-In . SVG Version: 6.00 Build 0)  -->
<!DOCTYPE svg PUBLIC "-//W3C//DTD SVG 1.1//EN" "http://www.w3.org/Graphics/SVG/1.1/DTD/svg11.dtd">
<svg version="1.1" id="Layer_1" xmlns="http://www.w3.org/2000/svg" xmlns:xlink="http://www.w3.org/1999/xlink" x="0px" y="0px"
	 width="1256px" height="362px" viewBox="0 0 1256 362" enable-background="new 0 0 1256 362" xml:space="preserve">
<g>
	<g>
		<g>
			<path fill="#862E29" d="M1179.342,278.176c13.138,23.616,26.024,47.292,38.658,71.022
				c-99.052-14.097-198.479-24.645-298.096-31.642c3.043-43.319,6.086-86.638,9.129-129.957
				c102.699,7.214,205.205,18.087,307.323,32.622C1217.117,239.414,1198.112,258.733,1179.342,278.176z"/>
			<path fill="#862E29" d="M1179.342,278.176c13.138,23.616,26.024,47.292,38.658,71.022
				c-99.052-14.097-198.479-24.645-298.096-31.642c3.043-43.319,6.086-86.638,9.129-129.957
				c102.699,7.214,205.205,18.087,307.323,32.622C1217.117,239.414,1198.112,258.733,1179.342,278.176z"/>
			<path opacity="0.5" fill="#212121" d="M924.469,252.577c50.579,3.553,101.11,8.007,151.57,13.362
				c-52.751,16.236-104.805,33.456-156.135,51.617C921.426,295.896,922.947,274.236,924.469,252.577z"/>
		</g>
		<g>
			<path fill="#862E29" d="M70.658,278.176C57.52,301.793,44.634,325.468,32,349.198c99.051-14.097,198.479-24.645,298.095-31.642
				c-3.043-43.319-6.085-86.638-9.128-129.957c-102.699,7.214-205.205,18.087-307.322,32.622
				C32.882,239.414,51.887,258.734,70.658,278.176z"/>
			<path fill="#862E29" d="M70.658,278.176C57.52,301.793,44.634,325.468,32,349.198c99.051-14.097,198.479-24.645,298.095-31.642
				c-3.043-43.319-6.085-86.638-9.128-129.957c-102.699,7.214-205.205,18.087-307.322,32.622
				C32.882,239.414,51.887,258.734,70.658,278.176z"/>
			<path opacity="0.5" fill="#212121" d="M325.53,252.577c-50.579,3.553-101.109,8.007-151.569,13.362
				c52.751,16.236,104.804,33.456,156.133,51.617C328.573,295.896,327.052,274.236,325.53,252.577z"/>
		</g>
		<path fill="#922C26" d="M1076.039,265.939c-299.85-31.823-602.228-31.823-902.078,0c-4.583-43.183-9.166-86.365-13.749-129.547
			c308.99-32.793,620.585-32.793,929.575,0C1085.205,179.574,1080.622,222.757,1076.039,265.939z"/>
		<g>
			<path fill="#FFFFFF" d="M310.669,176.183c-1.356,0.099-2.713,0.197-4.069,0.297c-0.471-1.801-0.942-3.603-1.414-5.404
				c-0.87-0.606-2.004-1.079-3.405-1.416s-3.003-0.438-4.81-0.302c-2.863,0.216-5.017,0.969-6.458,2.253
				c-1.441,1.285-2.088,2.867-1.942,4.745c0.129,1.667,1.016,2.998,2.656,3.992c1.641,0.996,4.23,1.781,7.767,2.362
				c4.257,0.686,7.543,1.927,9.855,3.717c2.313,1.791,3.572,4.127,3.78,7.006c0.223,3.091-0.898,5.667-3.358,7.736
				s-5.787,3.258-9.983,3.576c-3.039,0.229-5.775-0.046-8.211-0.828c-2.436-0.782-4.458-1.896-6.066-3.341
				c-0.187-2.377-0.375-4.755-0.562-7.133c1.342-0.105,2.685-0.21,4.027-0.315c0.487,1.807,0.975,3.614,1.461,5.421
				c1.096,0.745,2.38,1.325,3.851,1.742s3.202,0.549,5.193,0.398c2.698-0.204,4.789-0.916,6.274-2.138
				c1.484-1.221,2.158-2.78,2.019-4.676c-0.129-1.755-0.917-3.176-2.367-4.26c-1.449-1.084-3.929-1.902-7.441-2.449
				c-4.269-0.647-7.658-1.815-10.167-3.509s-3.878-3.96-4.103-6.803c-0.236-3.001,0.888-5.602,3.378-7.8
				c2.489-2.197,5.854-3.459,10.089-3.779c2.793-0.211,5.37,0.061,7.729,0.813c2.358,0.752,4.278,1.738,5.76,2.955
				C310.325,171.425,310.497,173.804,310.669,176.183z"/>
			<path fill="#FFFFFF" d="M354.589,169.521c-0.046-0.006-0.093-0.012-0.139-0.018c-3.656,10.519-7.281,21.042-10.875,31.57
				c-1.186,0.077-2.371,0.155-3.557,0.233c-4.939-9.959-9.909-19.909-14.908-29.851c-0.045,0.012-0.09,0.023-0.135,0.036
				c0.539,5.159,1.078,10.319,1.616,15.478c0.255,3.706,0.511,7.411,0.766,11.116c1.494,0.144,2.987,0.289,4.479,0.435
				c0.075,1.106,0.15,2.213,0.226,3.319c-4.733,0.321-9.466,0.65-14.198,0.987c-0.079-1.106-0.158-2.212-0.236-3.318
				c1.458-0.351,2.917-0.701,4.376-1.05c-0.707-10.071-1.414-20.142-2.12-30.212c-1.504-0.142-3.008-0.282-4.513-0.422
				c-0.079-1.115-0.159-2.23-0.238-3.345c1.488-0.106,2.976-0.211,4.464-0.316c2.301-0.161,4.601-0.321,6.902-0.479
				c4.949,10.097,9.868,20.203,14.756,30.317c0.054-0.003,0.108-0.007,0.163-0.011c3.516-10.666,7.062-21.327,10.639-31.984
				c3.799-0.238,7.599-0.471,11.398-0.7c0.067,1.116,0.134,2.232,0.201,3.348c-1.473,0.335-2.945,0.671-4.417,1.008
				c0.615,10.077,1.231,20.153,1.847,30.229c1.492,0.156,2.984,0.313,4.476,0.47c0.066,1.107,0.133,2.214,0.199,3.321
				c-4.734,0.284-9.469,0.576-14.203,0.876c-0.07-1.107-0.14-2.214-0.21-3.321c1.461-0.339,2.922-0.678,4.384-1.016
				c-0.231-3.707-0.462-7.414-0.693-11.121C354.888,179.908,354.738,174.714,354.589,169.521z"/>
			<path fill="#FFFFFF" d="M369.395,196.133c1.462-0.333,2.925-0.666,4.388-0.998c-0.586-10.078-1.172-20.157-1.758-30.235
				c-1.502-0.16-3.004-0.318-4.506-0.477c-0.066-1.116-0.132-2.231-0.198-3.348c4.777-0.282,9.555-0.557,14.333-0.824
				c0.063,1.116,0.125,2.232,0.187,3.348c-1.474,0.33-2.948,0.659-4.422,0.99c0.245,4.297,0.489,8.594,0.733,12.892
				c1.374-0.078,2.748-0.156,4.123-0.233c3.456-4.627,6.924-9.251,10.403-13.87c-1.001-0.07-2.003-0.139-3.005-0.208
				c-0.06-1.116-0.121-2.232-0.181-3.349c4.221-0.229,8.442-0.45,12.663-0.667c0.057,1.117,0.114,2.233,0.171,3.349
				c-1.24,0.284-2.479,0.568-3.718,0.853c-3.81,5.063-7.605,10.131-11.388,15.204c4.711,5.04,9.406,10.086,14.084,15.141
				c1.253,0.156,2.506,0.312,3.759,0.468c0.057,1.108,0.113,2.215,0.169,3.323c-4.329,0.22-8.658,0.447-12.987,0.681
				c-0.06-1.107-0.119-2.215-0.179-3.322c0.999-0.177,1.999-0.354,2.999-0.53c-4.003-4.344-8.018-8.683-12.044-13.015
				c-1.546,0.086-3.091,0.173-4.637,0.261c0.251,4.42,0.503,8.84,0.754,13.26c1.492,0.162,2.983,0.325,4.474,0.488
				c0.062,1.107,0.124,2.215,0.186,3.322c-4.736,0.264-9.471,0.537-14.207,0.817C369.525,198.348,369.46,197.24,369.395,196.133z"/>
			<path fill="#FFFFFF" d="M460.169,156.575c0.042,1.117,0.084,2.234,0.127,3.351c-1.48,0.302-2.959,0.606-4.438,0.91
				c0.445,11.442,0.889,22.884,1.333,34.327c-1.785,0.069-3.57,0.14-5.354,0.211c-6.738-9.631-13.519-19.246-20.343-28.845
				c-0.054,0.02-0.108,0.04-0.162,0.06c0.379,8.512,0.758,17.023,1.137,25.535c1.489,0.18,2.978,0.361,4.466,0.543
				c0.048,1.108,0.096,2.216,0.145,3.324c-4.738,0.206-9.476,0.42-14.213,0.642c-0.052-1.108-0.104-2.216-0.155-3.323
				c1.466-0.315,2.933-0.63,4.399-0.944c-0.461-10.085-0.923-20.169-1.385-30.254c-1.5-0.178-2.999-0.355-4.499-0.532
				c-0.052-1.117-0.104-2.233-0.157-3.35c1.49-0.07,2.979-0.139,4.469-0.207c1.8-0.083,3.601-0.164,5.401-0.244
				c6.837,9.589,13.631,19.195,20.382,28.816c0.054-0.02,0.107-0.04,0.161-0.06c-0.34-8.495-0.681-16.991-1.021-25.486
				c-1.498-0.187-2.997-0.372-4.495-0.557c-0.046-1.117-0.092-2.234-0.138-3.351c3.29-0.135,6.581-0.267,9.871-0.395
				C457.189,156.688,458.679,156.631,460.169,156.575z"/>
			<path fill="#FFFFFF" d="M465.264,194.856c-0.041-1.108-0.082-2.217-0.123-3.325c1.469-0.301,2.938-0.601,4.408-0.9
				c-0.363-10.089-0.725-20.178-1.088-30.267c-1.498-0.193-2.996-0.385-4.494-0.576c-0.041-1.117-0.083-2.234-0.124-3.352
				c10.22-0.377,20.441-0.72,30.663-1.025c0.092,3.079,0.184,6.159,0.276,9.238c-1.542,0.046-3.083,0.093-4.625,0.141
				c-0.199-1.711-0.398-3.422-0.598-5.133c-5.234,0.163-10.468,0.335-15.701,0.517c0.144,4.143,0.288,8.286,0.432,12.429
				c5.073-0.176,10.146-0.343,15.219-0.501c0.042,1.363,0.085,2.727,0.127,4.09c-5.068,0.158-10.137,0.325-15.205,0.501
				c0.159,4.583,0.318,9.166,0.477,13.749c5.306-0.184,10.612-0.358,15.918-0.523c0.092-1.72,0.184-3.439,0.276-5.159
				c1.525-0.047,3.051-0.094,4.577-0.139c0.091,3.07,0.183,6.141,0.275,9.21C485.724,194.136,475.494,194.478,465.264,194.856z"/>
			<path fill="#FFFFFF" d="M532.187,188.543c-1.136,1.205-2.826,2.354-5.068,3.453c-2.243,1.098-5.175,1.69-8.8,1.78
				c-5.292,0.131-9.655-1.558-13.104-5.072c-3.447-3.514-5.26-8.146-5.426-13.899c-0.006-0.211-0.012-0.422-0.019-0.633
				c-0.167-5.79,1.36-10.528,4.595-14.21c3.233-3.681,7.628-5.596,13.17-5.732c2.963-0.073,5.576,0.311,7.836,1.148
				c2.26,0.837,4.174,1.971,5.74,3.398c0.05,2.323,0.1,4.646,0.15,6.97c-1.258,0.027-2.517,0.055-3.775,0.083
				c-0.478-1.759-0.956-3.518-1.435-5.276c-0.911-0.684-2.007-1.239-3.287-1.667c-1.281-0.428-2.808-0.62-4.58-0.577
				c-4.313,0.105-7.598,1.614-9.849,4.518c-2.251,2.904-3.311,6.619-3.186,11.142c0.006,0.229,0.013,0.458,0.019,0.686
				c0.126,4.592,1.353,8.274,3.671,11.047c2.318,2.773,5.443,4.108,9.379,4.011c2.159-0.053,3.922-0.315,5.291-0.788
				c1.368-0.472,2.464-0.981,3.287-1.528c-0.063-2.807-0.127-5.614-0.191-8.42c-2.175-0.039-4.351-0.076-6.526-0.112
				c-0.031-1.276-0.062-2.552-0.093-3.827c3.968-0.096,7.937-0.187,11.905-0.271C531.99,179.357,532.088,183.95,532.187,188.543z"/>
			<path fill="#FFFFFF" d="M538.479,192.771c-0.022-1.109-0.044-2.218-0.066-3.327c1.474-0.276,2.948-0.551,4.422-0.826
				c-0.191-10.093-0.383-20.187-0.575-30.281c-1.494-0.218-2.988-0.435-4.482-0.652c-0.022-1.118-0.045-2.235-0.067-3.353
				c10.224-0.205,20.448-0.374,30.672-0.506c0.04,3.081,0.08,6.161,0.12,9.242c-1.542,0.02-3.085,0.041-4.627,0.063
				c-0.17-1.714-0.34-3.429-0.511-5.143c-5.235,0.074-10.471,0.158-15.706,0.25c0.074,4.145,0.147,8.29,0.221,12.435
				c5.075-0.09,10.149-0.171,15.224-0.243c0.02,1.364,0.039,2.728,0.059,4.092c-5.07,0.072-10.14,0.153-15.209,0.243
				c0.082,4.585,0.163,9.17,0.244,13.755c5.308-0.094,10.615-0.179,15.923-0.253c0.121-1.718,0.242-3.436,0.363-5.154
				c1.526-0.021,3.052-0.042,4.579-0.062c0.04,3.071,0.079,6.143,0.119,9.214C558.947,192.397,548.713,192.565,538.479,192.771z"/>
			<path fill="#FFFFFF" d="M591.073,153.618c4.354-0.034,7.699,0.875,10.03,2.72c2.332,1.844,3.504,4.476,3.52,7.891
				c0.009,1.866-0.521,3.523-1.589,4.971c-1.068,1.449-2.602,2.593-4.6,3.432c2.171,0.673,3.739,1.783,4.702,3.328
				c0.963,1.544,1.449,3.452,1.46,5.722c0.005,1.03,0.01,2.06,0.015,3.09c0.005,1.179,0.164,2.05,0.475,2.611
				c0.311,0.562,0.821,0.895,1.529,0.997c0.436,0.051,0.872,0.102,1.307,0.153c0.005,1.135,0.009,2.271,0.014,3.406
				c-0.961,0.004-1.922,0.008-2.883,0.012c-2.085,0.01-3.57-0.686-4.458-2.089s-1.338-3.108-1.35-5.115
				c-0.006-0.995-0.012-1.989-0.018-2.983c-0.012-2.095-0.65-3.772-1.914-5.031c-1.263-1.26-2.951-1.882-5.063-1.866
				c-2.876,0.021-5.752,0.046-8.628,0.074c0.042,4.365,0.083,8.73,0.125,13.096c1.481,0.232,2.962,0.465,4.444,0.699
				c0.009,1.109,0.019,2.218,0.028,3.327c-4.741,0.041-9.482,0.088-14.224,0.145c-0.013-1.109-0.026-2.218-0.039-3.327
				c1.476-0.264,2.952-0.527,4.428-0.789c-0.109-10.095-0.217-20.189-0.326-30.284c-1.492-0.23-2.984-0.46-4.477-0.689
				c-0.013-1.109-0.026-2.218-0.039-3.327c1.491-0.018,2.981-0.034,4.472-0.05C582.366,153.692,586.72,153.651,591.073,153.618z
				 M583.582,170.846c2.359-0.022,4.719-0.043,7.078-0.062c3.006-0.024,5.188-0.593,6.548-1.71c1.359-1.118,2.034-2.741,2.021-4.871
				c-0.012-2.024-0.678-3.622-2.001-4.794c-1.323-1.17-3.365-1.747-6.125-1.726c-2.549,0.02-5.098,0.042-7.647,0.066
				C583.499,162.116,583.54,166.481,583.582,170.846z"/>
			<path fill="#FFFFFF" d="M611.552,156.833c-0.003-1.118-0.007-2.235-0.01-3.354c4.783-0.015,9.567-0.021,14.35-0.021
				c0,1.118,0,2.236-0.001,3.354c-1.489,0.246-2.979,0.493-4.468,0.741c0.008,10.095,0.017,20.19,0.025,30.286
				c1.479,0.245,2.958,0.491,4.437,0.738c0,1.109,0,2.218,0,3.327c-4.741-0.001-9.482,0.006-14.224,0.021
				c-0.003-1.109-0.007-2.218-0.01-3.327c1.478-0.251,2.957-0.501,4.435-0.75c-0.021-10.096-0.042-20.191-0.063-30.286
				C614.533,157.318,613.042,157.076,611.552,156.833z"/>
			<path fill="#FFFFFF" d="M666.557,179.166c1.828,0.017,3.655,0.036,5.483,0.056c-0.015,1.355-0.03,2.711-0.045,4.066
				c-1.825-0.02-3.651-0.039-5.478-0.056c-0.015,1.602-0.03,3.204-0.046,4.806c1.477,0.26,2.953,0.522,4.429,0.784
				c-0.012,1.109-0.023,2.218-0.035,3.327c-4.731-0.05-9.464-0.093-14.196-0.127c0.009-1.109,0.017-2.218,0.024-3.327
				c1.48-0.236,2.962-0.471,4.442-0.705c0.014-1.602,0.027-3.204,0.04-4.806c-5.94-0.049-11.881-0.087-17.822-0.112
				c0.004-0.977,0.009-1.954,0.013-2.931c5.873-8.856,11.783-17.7,17.729-26.532c1.901,0.016,3.804,0.033,5.706,0.051
				C666.72,162.162,666.639,170.664,666.557,179.166z M649.1,179.033c4.036,0.022,8.073,0.05,12.11,0.084
				c0.051-6.028,0.101-12.057,0.151-18.086c-0.055-0.018-0.109-0.036-0.164-0.054c-0.187,0.465-0.373,0.93-0.56,1.395
				C656.777,167.92,652.931,173.474,649.1,179.033z"/>
			<path fill="#FFFFFF" d="M707.735,154.244c4.17,0.079,7.413,1.014,9.725,2.797s3.429,4.411,3.352,7.876
				c-0.037,1.708-0.633,3.221-1.782,4.543c-1.15,1.322-2.651,2.29-4.505,2.902c2.376,0.542,4.237,1.719,5.581,3.526
				c1.345,1.808,1.988,3.892,1.936,6.25c-0.079,3.521-1.32,6.182-3.718,7.986c-2.397,1.806-5.607,2.668-9.631,2.59
				c-6.345-0.123-12.69-0.232-19.035-0.327c0.017-1.109,0.033-2.218,0.05-3.327c1.482-0.225,2.965-0.448,4.447-0.671
				c0.161-10.094,0.322-20.188,0.484-30.282c-1.485-0.27-2.971-0.54-4.457-0.808c0.017-1.118,0.033-2.235,0.051-3.353
				c1.49,0.022,2.98,0.045,4.472,0.069C699.048,154.086,703.392,154.162,707.735,154.244z M699.827,170.448
				c2.997,0.052,5.995,0.106,8.992,0.164c1.933-0.015,3.505-0.539,4.721-1.571c1.216-1.031,1.843-2.479,1.882-4.345
				c0.043-2.077-0.6-3.645-1.931-4.701c-1.331-1.057-3.275-1.612-5.834-1.66c-2.539-0.048-5.079-0.094-7.619-0.138
				C699.968,162.282,699.897,166.365,699.827,170.448z M699.758,174.514c-0.08,4.655-0.16,9.311-0.241,13.966
				c3.085,0.053,6.17,0.109,9.255,0.169c2.448,0.047,4.36-0.499,5.737-1.641s2.088-2.786,2.134-4.934
				c0.048-2.252-0.483-4.033-1.593-5.341c-1.111-1.309-2.841-1.987-5.189-2.033C706.493,174.634,703.125,174.572,699.758,174.514z"
				/>
			<path fill="#FFFFFF" d="M725.872,189.753c0.982-0.109,1.966-0.218,2.948-0.326c4.896-11.46,9.827-22.912,14.796-34.355
				c1.545,0.042,3.09,0.085,4.636,0.128c4.244,11.699,8.452,23.404,12.623,35.115c0.967,0.163,1.934,0.325,2.9,0.488
				c-0.036,1.108-0.071,2.217-0.107,3.326c-3.788-0.122-7.576-0.238-11.364-0.35c0.032-1.109,0.065-2.217,0.098-3.326
				c1.003-0.138,2.006-0.275,3.009-0.413c-0.8-2.384-1.601-4.768-2.403-7.151c-5.297-0.156-10.594-0.303-15.891-0.44
				c-0.961,2.334-1.92,4.669-2.877,7.005c0.993,0.192,1.986,0.385,2.979,0.578c-0.028,1.109-0.057,2.217-0.086,3.326
				c-3.779-0.098-7.559-0.191-11.338-0.279C725.82,191.971,725.847,190.862,725.872,189.753z M738.893,178.138
				c4.202,0.11,8.404,0.227,12.606,0.35c-1.896-5.559-3.799-11.116-5.709-16.672c-0.055-0.002-0.109-0.003-0.164-0.005
				C743.373,167.251,741.129,172.694,738.893,178.138z"/>
			<path fill="#FFFFFF" d="M807.38,157.273c-0.047,1.117-0.093,2.234-0.14,3.351c-1.499,0.184-2.998,0.369-4.496,0.554
				c-0.467,11.441-0.934,22.882-1.401,34.324c-1.784-0.073-3.569-0.145-5.354-0.215c-5.951-10.136-11.945-20.26-17.984-30.372
				c-0.056,0.016-0.11,0.031-0.166,0.047c-0.299,8.515-0.598,17.029-0.897,25.544c1.47,0.298,2.939,0.597,4.408,0.896
				c-0.04,1.108-0.08,2.217-0.12,3.325c-4.738-0.171-9.478-0.335-14.217-0.491c0.036-1.108,0.072-2.217,0.109-3.325
				c1.485-0.198,2.973-0.395,4.459-0.591c0.342-10.09,0.684-20.179,1.025-30.269c-1.479-0.296-2.961-0.592-4.441-0.888
				c0.037-1.117,0.073-2.234,0.11-3.352c1.49,0.049,2.979,0.099,4.47,0.149c1.802,0.061,3.603,0.123,5.403,0.187
				c6.052,10.103,12.061,20.218,18.024,30.346c0.056-0.015,0.11-0.031,0.166-0.046c0.337-8.496,0.673-16.991,1.009-25.487
				c-1.479-0.305-2.958-0.61-4.438-0.914c0.043-1.117,0.086-2.234,0.129-3.351c3.291,0.127,6.581,0.258,9.872,0.392
				C804.4,157.149,805.891,157.211,807.38,157.273z"/>
			<path fill="#FFFFFF" d="M827.779,158.175c5.209,0.243,9.326,1.99,12.341,5.232s4.394,7.309,4.146,12.196
				c-0.088,1.749-0.177,3.499-0.265,5.248c-0.248,4.905-2.026,8.811-5.323,11.724c-3.298,2.913-7.523,4.244-12.687,4.004
				c-5.525-0.257-11.051-0.503-16.576-0.739c0.047-1.108,0.094-2.216,0.142-3.324c1.488-0.183,2.977-0.366,4.465-0.547
				c0.441-10.085,0.882-20.171,1.323-30.257c-1.478-0.312-2.955-0.622-4.434-0.932c0.048-1.117,0.096-2.234,0.144-3.351
				c1.489,0.063,2.979,0.128,4.469,0.193C819.609,157.8,823.694,157.985,827.779,158.175z M820.742,161.95
				c-0.453,10.085-0.907,20.17-1.36,30.255c2.267,0.102,4.533,0.206,6.8,0.311c3.662,0.17,6.605-0.859,8.833-3.096
				c2.228-2.235,3.434-5.181,3.614-8.838c0.087-1.767,0.174-3.534,0.262-5.301c0.178-3.622-0.736-6.654-2.748-9.096
				c-2.012-2.441-4.865-3.75-8.554-3.922C825.307,162.157,823.024,162.053,820.742,161.95z"/>
			<path fill="#FFFFFF" d="M863.989,160.011c-0.062,1.116-0.122,2.232-0.184,3.349c-1.502,0.164-3.003,0.33-4.504,0.496
				c-0.394,7.312-0.787,14.625-1.181,21.937c-0.156,2.9,0.578,5.147,2.202,6.743c1.622,1.596,3.827,2.471,6.619,2.627
				c2.936,0.165,5.344-0.447,7.224-1.837c1.882-1.39,2.908-3.543,3.079-6.46c0.426-7.311,0.852-14.621,1.277-21.932
				c-1.473-0.333-2.946-0.665-4.42-0.996c0.064-1.116,0.128-2.232,0.191-3.348c3.289,0.188,6.577,0.38,9.865,0.576
				c1.489,0.089,2.978,0.178,4.467,0.268c-0.067,1.116-0.136,2.232-0.203,3.348c-1.502,0.156-3.005,0.313-4.507,0.47
				c-0.435,7.31-0.87,14.62-1.305,21.93c-0.248,4.165-1.841,7.274-4.77,9.333c-2.931,2.06-6.637,2.96-11.127,2.709
				c-4.363-0.244-7.833-1.547-10.415-3.916c-2.581-2.368-3.765-5.633-3.546-9.799c0.385-7.313,0.77-14.626,1.154-21.938
				c-1.476-0.325-2.95-0.648-4.427-0.971c0.058-1.116,0.115-2.232,0.173-3.349c1.49,0.077,2.979,0.154,4.469,0.232
				C857.412,159.653,860.7,159.83,863.989,160.011z"/>
			<path fill="#FFFFFF" d="M931.25,164.222c-0.079,1.115-0.157,2.23-0.236,3.345c-1.504,0.142-3.008,0.283-4.511,0.426
				c-0.793,11.423-1.585,22.847-2.377,34.27c-1.782-0.123-3.565-0.246-5.348-0.367c-5.663-10.302-11.369-20.592-17.12-30.871
				c-0.056,0.014-0.111,0.028-0.167,0.042c-0.542,8.503-1.083,17.005-1.624,25.508c1.461,0.34,2.922,0.681,4.383,1.022
				c-0.072,1.107-0.144,2.214-0.215,3.32c-4.733-0.306-9.468-0.604-14.202-0.895c0.067-1.107,0.136-2.214,0.204-3.321
				c1.491-0.155,2.983-0.31,4.476-0.464c0.628-10.076,1.257-20.151,1.886-30.227c-1.472-0.339-2.944-0.677-4.416-1.014
				c0.068-1.116,0.137-2.231,0.205-3.347c1.488,0.091,2.978,0.184,4.466,0.276c1.799,0.112,3.599,0.226,5.397,0.34
				c5.765,10.271,11.484,20.553,17.161,30.846c0.056-0.014,0.111-0.027,0.167-0.042c0.578-8.482,1.156-16.965,1.733-25.448
				c-1.471-0.347-2.94-0.693-4.412-1.039c0.075-1.115,0.15-2.23,0.225-3.346c3.287,0.221,6.574,0.445,9.86,0.673
				C928.273,164.014,929.762,164.118,931.25,164.222z"/>
			<path fill="#FFFFFF" d="M963.983,200.843c-1.251,1.085-3.049,2.061-5.391,2.93c-2.344,0.869-5.322,1.166-8.94,0.894
				c-5.281-0.397-9.458-2.513-12.539-6.353c-3.083-3.84-4.426-8.63-4.018-14.371c0.015-0.211,0.029-0.421,0.045-0.632
				c0.41-5.777,2.403-10.34,5.991-13.681c3.586-3.341,8.151-4.808,13.684-4.391c2.957,0.223,5.52,0.865,7.687,1.923
				s3.96,2.377,5.377,3.954c-0.182,2.317-0.363,4.633-0.545,6.95c-1.256-0.099-2.513-0.197-3.769-0.294
				c-0.3-1.798-0.601-3.596-0.902-5.394c-0.838-0.771-1.874-1.433-3.106-1.987c-1.232-0.553-2.732-0.897-4.502-1.031
				c-4.305-0.325-7.726,0.849-10.256,3.514c-2.531,2.665-3.956,6.256-4.283,10.769c-0.016,0.228-0.032,0.457-0.049,0.685
				c-0.332,4.582,0.521,8.368,2.554,11.358c2.031,2.99,5.009,4.63,8.938,4.926c2.155,0.162,3.938,0.078,5.347-0.256
				c1.41-0.333,2.552-0.73,3.427-1.193c0.216-2.799,0.433-5.599,0.648-8.398c-2.162-0.255-4.324-0.509-6.487-0.762
				c0.097-1.272,0.193-2.545,0.29-3.817c3.96,0.3,7.921,0.606,11.881,0.917C964.703,191.683,964.344,196.263,963.983,200.843z"/>
		</g>
	</g>
</g>
<g>
	<g>
		<path fill="#FED800" d="M516.648,21.669c5.052,7.524,10.01,15.083,14.874,22.676c9.377,0.439,18.728,1.006,28.051,1.7
			c-6.292,6.64-12.461,13.336-18.505,20.087c2.276,8.635,4.513,17.276,6.709,25.925c-8.224-3.52-16.541-6.936-24.95-10.246
			c-7.561,4.951-15.015,9.987-22.36,15.107c0.394-8.915,0.828-17.831,1.302-26.748c-7.296-5.38-14.708-10.682-22.232-15.901
			c9.005-2.578,18.058-5.036,27.155-7.373C509.913,38.473,513.231,30.063,516.648,21.669z"/>
		<path fill="#FED800" d="M733.348,21.669c3.418,8.394,6.737,16.804,9.959,25.228c9.098,2.337,18.149,4.795,27.154,7.373
			c-7.525,5.219-14.937,10.521-22.233,15.901c0.475,8.917,0.909,17.833,1.304,26.748c-7.347-5.12-14.801-10.156-22.362-15.107
			c-8.408,3.31-16.726,6.727-24.948,10.246c2.196-8.648,4.433-17.29,6.709-25.925c-6.044-6.751-12.212-13.448-18.505-20.087
			c9.323-0.694,18.676-1.261,28.053-1.699C723.341,36.753,728.297,29.193,733.348,21.669z"/>
		<path fill="#FED800" d="M624.998,16.119c4.252,8,8.407,16.027,12.467,24.077c9.272,1.395,18.511,2.914,27.71,4.556
			c-6.937,5.962-13.753,11.994-20.449,18.092c1.381,8.822,2.722,17.647,4.021,26.475c-7.815-4.341-15.732-8.59-23.749-12.742
			c-8.017,4.152-15.933,8.4-23.748,12.742c1.3-8.828,2.641-17.652,4.022-26.475c-6.696-6.098-13.513-12.13-20.449-18.092
			c9.2-1.642,18.438-3.161,27.713-4.556C616.594,32.146,620.748,24.119,624.998,16.119z"/>
	</g>
</g>
</svg>
